PathFileType	4	(X/Y/Z)	T1_P2_Vision_NoMovement_0_0-733.trc
DataRate	CameraRate	NumFrames	NumMarkers	Units	OrigDataRate	OrigDataStartFrame	OrigNumFrames
60	60	4	27	m	60	91	733
Frame#	Time	RHip			RKnee			RAnkle			RBigToe			RSmallToe			RHeel			LHip			LKnee			LAnkle			LBigToe			LSmallToe			LHeel			Neck			Head			Nose			RShoulder			RElbow			RWrist			RThumb			RIndex			RPinky			LShoulder			LElbow			LWrist			LThumb			LIndex			LPinky		
		X1	Y1	Z1	X2	Y2	Z2	X3	Y3	Z3	X4	Y4	Z4	X5	Y5	Z5	X6	Y6	Z6	X7	Y7	Z7	X8	Y8	Z8	X9	Y9	Z9	X10	Y10	Z10	X11	Y11	Z11	X12	Y12	Z12	X13	Y13	Z13	X14	Y14	Z14	X15	Y15	Z15	X16	Y16	Z16	X17	Y17	Z17	X18	Y18	Z18	X19	Y19	Z19	X20	Y20	Z20	X21	Y21	Z21	X22	Y22	Z22	X23	Y23	Z23	X24	Y24	Z24	X25	Y25	Z25	X26	Y26	Z26	X27	Y27	Z27
92	1.5333333333333334	436.6189507331561	3694.1986323926967	640.4788266688337	855.0338441963875	3769.6127282152042	657.648368839311	1219.6501062249968	3740.1128583530312	673.2445712114509	1290.7957774579172	3644.3749382397887	650.0072376658176	1296.6136414593698	3707.019569174923	609.322935536614	1289.233747444423	3819.726455490886	747.3972264577671	455.12924392940295	3631.558766066789	851.4447955992018	850.7739609065585	3641.9723365983164	854.700955068788	1233.468696081268	3679.17858524915	855.9888736281856	1302.029519302323	3547.0786909023454	797.9802061012883	1283.5687208843265	3535.777132288632	849.6804018403158	1258.3663554679774	3706.3859720510163	857.4090182994197	-120.98220719845601	3621.9665324310654	749.3972182497831	-386.8066730634769	3560.4067646765748	715.6043584964923	-232.85743339202	3434.183002479669	662.9657283844102	-48.929968997841385	3661.036256172598	577.1853750772948	181.69207939426326	3782.994185159084	522.6696089632597	277.1935310432793	3535.4290767380467	538.6755390600431	276.7058783731339	3396.051976361603	609.2185198515527	326.99947925114645	3412.5939925311945	621.1556186768719	373.5555526534627	3452.7736543732944	623.2701201367502	-35.49805392209761	3545.343148069165	888.4817708383707	197.60485985884213	3524.4910008326265	972.5777018595743	291.56038478164595	3383.4115202672547	745.0525381148226	276.5490367239506	3407.1097279687674	648.3432068484714	324.6085848549151	3394.7024626347006	622.3672728236078	380.7190700513484	3444.46761285557	677.2669049986928
93	1.55	442.1994104178826	3696.508900899996	641.8493204976935	860.9399335705783	3792.3831695390613	663.6576584327403	1213.9974065750064	3738.1367248760234	671.6160935944102	1297.9511658630279	3658.8402677675	662.5107116234227	1289.1677536890481	3685.7834740449953	604.1177636402765	1289.2417271891456	3819.8283100517706	747.4286150401895	455.2857627786944	3631.4194118600917	851.6668836970365	859.6221088445984	3638.7799701470612	853.2120832040898	1233.4210005697432	3678.8662419045054	855.7133957994682	1302.1639849334674	3547.4804229662154	798.2261376976486	1283.210204589535	3537.595138138047	844.5076862295533	1258.3027525649918	3706.0161413769783	857.1414893705947	-121.49965000539427	3606.388223522908	735.5073962762641	-386.8236526968614	3560.2512727339763	715.4563692378907	-232.8802476527518	3434.106036571355	663.0479318725708	-48.86317831683947	3660.653390462624	577.0107784993329	181.56273652354153	3783.3018853833846	522.9378962435134	277.6615289716003	3537.5056814682257	533.6515273962078	302.937643749831	3415.0223456094755	617.3415790620863	343.13915190126636	3431.950670521913	636.5779686693502	388.8950807459393	3463.9171084850773	627.9744382577001	-35.568843102964436	3545.3176194563025	888.5652257100577	202.74479918107062	3528.390883348078	974.3111662949306	308.2802919967758	3401.9946104690202	759.8635531928097	296.6797692466067	3411.985553565041	653.54529292407	338.8982304676471	3395.5312703951868	632.903115333128	394.9833088115738	3441.647168434299	668.1023650663644
94	1.5666666666666667	446.16431326176485	3691.240854644894	639.3053290396634	860.3763436077044	3792.2936919529025	663.6898313940906	1219.4852007706295	3739.850372512033	673.0987719693949	1298.0307101366823	3658.732189916705	662.4038006318422	1289.3223177773004	3685.4801527251934	603.7692033524543	1281.6191182120556	3797.8411182568257	741.243319737658	455.2374081119058	3628.5011365110818	856.0393409590204	859.4215676411891	3638.497441814239	853.1196535512064	1233.4294615563506	3679.0702278144836	855.8789542190699	1302.0852940348605	3547.3044711848434	798.2768063573758	1283.3105909421943	3535.8684317908346	849.2086037960629	1258.2986773899368	3706.166747278201	857.3011603800359	-121.5209492348335	3604.3274738180958	739.5260483076462	-386.7803955660467	3560.2752902958846	715.5090514926018	-232.9127406439675	3431.983090032694	667.2429430365828	-48.834921407110535	3660.489766246195	577.0413926910759	181.4352413133088	3782.981030799756	522.8751437620331	287.4633213906984	3543.133911418935	535.7283763592409	312.0644176804192	3418.819116431329	603.5221163449454	342.9903818932367	3430.705929882915	623.4112154442303	396.43663954462824	3489.2120739108163	630.4863826157768	-35.4869637324138	3545.014709415546	888.4026708142918	197.51652744939423	3520.3990144013533	975.327562816786	308.64454621666914	3402.142810407916	760.1066717281548	318.697710267912	3436.012720160726	672.0671309992335	345.92806648683654	3411.983710366953	642.8781216955141	402.03068362201196	3468.7732766455774	698.6954421987156
95	1.5833333333333333	446.64058807442547	3691.5044877757136	639.3993805838722	866.7818090273045	3794.2536743733044	665.1217794805784	1219.7441484719757	3740.294159222406	673.4177659568335	1303.1715125525982	3661.4110938033496	664.4815697169114	1289.285779583087	3685.656249317021	603.7805406483724	1289.316227193132	3819.855582378698	747.509897973343	459.28763927948194	3623.850653952365	853.4620022882102	859.6981298188473	3638.639569781003	853.2201970244014	1233.583350519321	3679.069472221803	855.8837312975022	1302.2914423327088	3547.3690738227724	798.4054026495597	1288.70338400022	3537.5811730845417	851.3370880657429	1265.0968251081558	3710.7303241787135	858.6980025003154	-121.38279626032521	3606.3653899230776	735.5017065730211	-386.7514532878759	3558.765539141475	719.7939335173497	-232.8395368080376	3431.729134607122	667.0957230466056	-48.74588787911061	3660.3191483374617	576.8930320879692	181.66758724703396	3782.7526113981257	522.8428804576356	292.4909864672007	3536.673025770118	532.7145280608969	318.4250516700459	3398.304476976413	602.0075986033629	355.3866897399549	3419.0656998418617	623.8118484650993	405.5586339400114	3488.86258731805	625.2972803083154	-35.49555354358469	3544.983729867112	888.4191095667944	197.5515210481317	3520.181963464448	975.3069659925883	307.4536848423378	3393.9339554263292	756.0675252886306	317.1750167841712	3414.5327755198214	670.3888207485879	343.9706950570285	3395.5193857795457	635.2796685566138	405.7224691109191	3464.5302171994754	696.5387021804004
